<svg xmlns="http://www.w3.org/2000/svg" xmlns:xlink="http://www.w3.org/1999/xlink" width="170" zoomAndPan="magnify" viewBox="0 0 127.5 30.000001" height="40" preserveAspectRatio="xMidYMid meet" version="1.0"><defs><g/><clipPath id="06bc2a13bd"><path d="M 1.816406 0 L 125.203125 0 L 125.203125 29.03125 L 1.816406 29.03125 Z M 1.816406 0 " clip-rule="nonzero"/></clipPath></defs><g clip-path="url(#06bc2a13bd)"><path fill="#ffffff" d="M 1.816406 0 L 125.203125 0 L 125.203125 29.03125 L 1.816406 29.03125 Z M 1.816406 0 " fill-opacity="1" fill-rule="nonzero"/><path fill="#ffffff" d="M 1.816406 0 L 125.203125 0 L 125.203125 29.03125 L 1.816406 29.03125 Z M 1.816406 0 " fill-opacity="1" fill-rule="nonzero"/></g><g fill="#d40c0c" fill-opacity="1"><g transform="translate(33.200085, 24.05181)"><g><path d="M 6.65625 -10.15625 L 4.03125 -10.15625 L 4.03125 -12.875 C 4.03125 -13.3125 3.882812 -13.53125 3.59375 -13.53125 C 3.445312 -13.53125 3.34375 -13.476562 3.28125 -13.375 C 3.226562 -13.28125 3.203125 -13.113281 3.203125 -12.875 L 3.203125 -10.46875 C 3.203125 -10.1875 3.242188 -9.984375 3.328125 -9.859375 C 3.410156 -9.742188 3.566406 -9.617188 3.796875 -9.484375 L 5.421875 -8.546875 C 5.859375 -8.296875 6.171875 -8 6.359375 -7.65625 C 6.554688 -7.3125 6.65625 -6.828125 6.65625 -6.203125 L 6.65625 -2.96875 C 6.65625 -1.570312 6.476562 -0.71875 6.125 -0.40625 C 5.757812 -0.0703125 4.914062 0.09375 3.59375 0.09375 C 2.28125 0.09375 1.445312 -0.078125 1.09375 -0.421875 C 0.71875 -0.785156 0.53125 -1.632812 0.53125 -2.96875 L 0.53125 -6.390625 L 3.203125 -6.390625 L 3.203125 -2.609375 C 3.203125 -2.171875 3.347656 -1.953125 3.640625 -1.953125 C 3.898438 -1.953125 4.03125 -2.171875 4.03125 -2.609375 L 4.03125 -5.890625 C 4.03125 -6.171875 3.988281 -6.367188 3.90625 -6.484375 C 3.832031 -6.597656 3.675781 -6.726562 3.4375 -6.875 L 1.734375 -7.859375 C 1.304688 -8.109375 1 -8.410156 0.8125 -8.765625 C 0.625 -9.128906 0.53125 -9.632812 0.53125 -10.28125 L 0.53125 -12.5 C 0.53125 -13.820312 0.71875 -14.664062 1.09375 -15.03125 C 1.457031 -15.40625 2.296875 -15.59375 3.609375 -15.59375 C 4.898438 -15.59375 5.734375 -15.421875 6.109375 -15.078125 C 6.472656 -14.734375 6.65625 -13.875 6.65625 -12.5 Z M 6.65625 -10.15625 "/></g></g></g><g fill="#d40c0c" fill-opacity="1"><g transform="translate(40.047203, 24.05181)"><g><path d="M 3.140625 -5.359375 L 4.046875 -5.359375 L 3.640625 -12.421875 L 3.5625 -12.421875 Z M 5.359375 -15.484375 L 6.921875 0 L 4.34375 0 L 4.15625 -3.296875 L 3.046875 -3.296875 L 2.859375 0 L 0.3125 0 L 1.828125 -15.484375 Z M 5.359375 -15.484375 "/></g></g></g><g fill="#d40c0c" fill-opacity="1"><g transform="translate(46.932468, 24.05181)"><g><path d="M 3.3125 -15.484375 L 3.3125 -2.046875 L 4.90625 -2.046875 L 4.90625 0 L 0.671875 0 L 0.671875 -15.484375 Z M 3.3125 -15.484375 "/></g></g></g><g fill="#d40c0c" fill-opacity="1"><g transform="translate(51.681575, 24.05181)"><g><path d="M 3.140625 -5.359375 L 4.046875 -5.359375 L 3.640625 -12.421875 L 3.5625 -12.421875 Z M 5.359375 -15.484375 L 6.921875 0 L 4.34375 0 L 4.15625 -3.296875 L 3.046875 -3.296875 L 2.859375 0 L 0.3125 0 L 1.828125 -15.484375 Z M 5.359375 -15.484375 "/></g></g></g><g fill="#d40c0c" fill-opacity="1"><g transform="translate(58.56684, 24.05181)"><g/></g></g><g fill="#d40c0c" fill-opacity="1"><g transform="translate(61.12257, 24.05181)"><g><path d="M 3.3125 -2.046875 C 3.363281 -2.023438 3.445312 -2.015625 3.5625 -2.015625 C 3.78125 -2.015625 3.929688 -2.066406 4.015625 -2.171875 C 4.109375 -2.273438 4.15625 -2.453125 4.15625 -2.703125 L 4.15625 -6.546875 C 4.15625 -6.992188 3.953125 -7.21875 3.546875 -7.21875 C 3.523438 -7.21875 3.488281 -7.210938 3.4375 -7.203125 C 3.382812 -7.191406 3.34375 -7.1875 3.3125 -7.1875 Z M 3.3125 -9.46875 C 3.34375 -9.46875 3.382812 -9.460938 3.4375 -9.453125 C 3.488281 -9.441406 3.523438 -9.4375 3.546875 -9.4375 C 3.765625 -9.4375 3.921875 -9.488281 4.015625 -9.59375 C 4.109375 -9.695312 4.15625 -9.875 4.15625 -10.125 L 4.15625 -12.828125 C 4.15625 -13.253906 3.972656 -13.46875 3.609375 -13.46875 L 3.3125 -13.46875 Z M 3.9375 -15.484375 C 5.039062 -15.484375 5.796875 -15.296875 6.203125 -14.921875 C 6.597656 -14.566406 6.796875 -13.84375 6.796875 -12.75 L 6.796875 -10.703125 C 6.796875 -10.023438 6.703125 -9.507812 6.515625 -9.15625 C 6.328125 -8.8125 6.03125 -8.550781 5.625 -8.375 C 6.039062 -8.1875 6.335938 -7.921875 6.515625 -7.578125 C 6.703125 -7.234375 6.796875 -6.695312 6.796875 -5.96875 L 6.796875 -3.125 C 6.796875 -1.78125 6.59375 -0.921875 6.1875 -0.546875 C 5.78125 -0.179688 4.945312 0 3.6875 0 L 0.671875 0 L 0.671875 -15.484375 Z M 3.9375 -15.484375 "/></g></g></g><g fill="#d40c0c" fill-opacity="1"><g transform="translate(68.141342, 24.05181)"><g><path d="M 3.3125 -15.484375 L 3.3125 -2.046875 L 4.90625 -2.046875 L 4.90625 0 L 0.671875 0 L 0.671875 -15.484375 Z M 3.3125 -15.484375 "/></g></g></g><g fill="#d40c0c" fill-opacity="1"><g transform="translate(72.890447, 24.05181)"><g><path d="M 3.140625 -5.359375 L 4.046875 -5.359375 L 3.640625 -12.421875 L 3.5625 -12.421875 Z M 5.359375 -15.484375 L 6.921875 0 L 4.34375 0 L 4.15625 -3.296875 L 3.046875 -3.296875 L 2.859375 0 L 0.3125 0 L 1.828125 -15.484375 Z M 5.359375 -15.484375 "/></g></g></g><g fill="#d40c0c" fill-opacity="1"><g transform="translate(79.775712, 24.05181)"><g><path d="M 6.703125 -10.203125 L 4.046875 -10.203125 L 4.046875 -12.859375 C 4.046875 -13.304688 3.898438 -13.53125 3.609375 -13.53125 C 3.335938 -13.53125 3.203125 -13.304688 3.203125 -12.859375 L 3.203125 -2.609375 C 3.203125 -2.179688 3.347656 -1.96875 3.640625 -1.96875 C 3.796875 -1.96875 3.898438 -2.015625 3.953125 -2.109375 C 4.015625 -2.203125 4.046875 -2.367188 4.046875 -2.609375 L 4.046875 -6.5625 L 6.703125 -6.5625 L 6.703125 -3 C 6.703125 -1.644531 6.515625 -0.785156 6.140625 -0.421875 C 5.773438 -0.078125 4.945312 0.09375 3.65625 0.09375 C 2.320312 0.09375 1.476562 -0.078125 1.125 -0.421875 C 0.757812 -0.785156 0.578125 -1.644531 0.578125 -3 L 0.578125 -12.5 C 0.578125 -13.875 0.753906 -14.734375 1.109375 -15.078125 C 1.460938 -15.421875 2.300781 -15.59375 3.625 -15.59375 C 4.957031 -15.59375 5.800781 -15.410156 6.15625 -15.046875 C 6.519531 -14.691406 6.703125 -13.84375 6.703125 -12.5 Z M 6.703125 -10.203125 "/></g></g></g><g fill="#d40c0c" fill-opacity="1"><g transform="translate(86.546542, 24.05181)"><g><path d="M 3.25 -15.484375 L 3.25 -9.3125 L 3.34375 -9.328125 L 4.296875 -15.484375 L 6.90625 -15.484375 L 5.40625 -8.640625 L 7.09375 0 L 4.4375 0 L 3.34375 -7.515625 L 3.25 -7.515625 L 3.25 0 L 0.671875 0 L 0.671875 -15.484375 Z M 3.25 -15.484375 "/></g></g></g></svg>